<?xml version="1.0" encoding="utf-8"?>
<svg height="199.045" width="434.983" version="1.1" xmlns="http://www.w3.org/2000/svg">
  <g transform="translate(-105.204 -942.873)">
    <path d="m118.016 993.582c4.07565 0.22875 8.26415 1.135 12.2265 0.45625 0.90775-0.68125 1.92625 0.44875 3.05913 0.2275h0.67825c1.13275 0.22125 2.48825 0.1125 3.50875 0.56125l1.35887-0.67875c2.94438 0.23 6.22563 0 9.05563 0.90625 7.24512 8.3788 14.8345 15.9638 22.6421 24.2299 0.56738 0 0.229-0.7925 0.45563-1.2466l-0.22663-4.6397c-1.47262-2.2661-0.67962-5.6636-0.67962-8.3761l0.33787-8.6075c0.11275-0.9075 0.68013-1.80875 1.812-1.80875 1.58738 0.33625 3.28275 0.11125 4.86863 0.33625 0.90725 0.34 1.47075-0.455 2.3765-0.33625 2.26462 0 4.64212 0.22125 7.02 0.22125 1.13375 1.02 1.8135-0.67875 3.05512-0.56125 2.71838 0.22125 5.09425 0.34 7.813 0.1125 1.24275 1.12875 2.15238-0.5675 3.396-0.34 2.82963 0.5675 6.794-1.02 8.37938 2.26375 4.30187 7.925 9.05575 15.6225 14.0376 23.2055 0.45213-0.1147 0.45213-0.792 0.33788-1.2451 0-3.5083 0.11425-7.2441 0.11425-10.8691l-0.2255-11.2088c0-0.79125 0.45212-1.6975 1.13087-1.80625 2.15275-0.4575 4.417 0 6.2265 0.90375 1.0195-0.90375 2.15288-1.81 3.62488-1.13375 1.015 0.33875 2.03375-0.56625 2.9425 0.23 1.81125-0.5675 3.5125 0.2275 5.32 0.33875 0.905 1.24375 2.15125-0.11125 3.5075 0.3375 1.9275 0 3.85125 0.33875 5.66125-0.44875 3.175 0.33625 6.455-0.2275 9.4 0.44875 1.24375 0.6825 1.355 2.03625 1.81 3.17125l3.6225 11.4326 12.9062 37.8131 2.945 8.1542 0.225 0.1114 0.34-2.377c0-7.9247-0.22625-15.8505-0.11375-23.6596l-0.67625-1.5869c-0.57-5.6593-0.57-11.3194-0.57-17.0952 0.455-5.4363 0.115-11.2076 1.24625-16.5313 1.6975-1.58125 4.3025-0.44875 6.22375 0.11875l2.38-0.91125 4.9825 0.22625c1.24625 0.90625 2.9425 0.56625 4.4125 0.2275 2.04125 0.79375 4.41625-0.45375 6.22875 0.90625l2.26625-0.67625c1.695 0.56375 3.2825-0.23 5.09125 0 1.58625 0 3.28625-0.1125 4.64375 0.44875l0.67875 0.91 0.225 10.1875 0.9075 27.6211 1.8125 60.2334c0.11125 8.375 0.905 16.7554 0.56875 25.1304 0 0.7935-0.56875 1.3622-0.795 1.9287v-0.1172c-0.34125 0.3432-0.68125 0.7935-0.5675 1.3599-1.01875 1.4721-2.15125 3.1665-3.73375 4.0737-1.02 0.792-1.5875 2.042-2.3775 3.0576l-4.19125 2.1509c-1.3575 1.4722-3.28125 1.5835-4.9825 2.2646l-4.4125 2.0396-6.9075 0.2221-2.37875 0.5665c-2.2625 0.3432-4.86625 0-7.245 0.3432l-5.54625 0.2207c-3.62375-0.9033-7.35625 0-11.0962 0-2.26375-0.5639-5.31875-0.1074-6.905-1.8076h-0.34125l-23.885-18.7915-1.815-1.2441-0.3375 21.2793c0.2275 0.5639 1.0175 0.2294 1.585 0.3432-0.5675 0.1133-1.47-0.3432-1.6975 0.4502-0.56625 0.1172-0.90875-0.1108-1.4725 0l-26.8292-0.1108c-0.56975-0.4532-1.2465-0.9073-1.92525-1.2491l-12.4531-5.0927-0.11625 6.5698-29.0908-0.1172c-7.36087-2.605-15.0606-4.3027-22.5328-6.5635l-26.2661-7.5844c-1.13281-0.5674-2.82958-0.3418-3.2793-1.6993-0.45312-9.2846 0.1128-18.5679 0-27.8515-0.229-0.7935-1.36083-0.7935-1.47412-1.6977 0.11329-7.9239 0.11329-15.9634 0.56592-23.8883 0.22657-5.997 0.34229-12.3389 0.34229-18.6801 0-0.6778-1.021-0.7925-1.13281-1.4698-0.90723-1.9252-0.45459-4.3032-0.56641-6.4565 0-4.1895 0.33691-8.3765 0.45068-12.5635-0.22656-10.0791 0.22754-19.9238 0.45362-29.8901 0.6792-0.56625-0.11329-1.585 0.2251-2.26625 0-1.01625-0.33839-2.26 0.79345-2.94375 1.13135-0.56125 2.48877 0.22625 3.7378 0.11625 0.7915-0.45375 1.92236-0.45375 2.82861-0.22875" fill="#ee2722"/>
    <g fill="#ee2722">
      <path d="M 449.332 1158.937 C 449.56 1152.263 446.979 1146.42 441.404 1142.387 C 438.673 1141.582 436.248 1141.667 433.293 1141.436 C 432.038 1141.899 430.561 1142.013 429.196 1141.779 L 423.465 1143.447 C 422.671 1143.791 421.55 1143.799 421.665 1144.605 C 422.005 1147.947 419.041 1148.357 419.722 1151.467 L 418.731 1157.75 C 418.845 1160.744 418.872 1169.364 419.216 1172.468 C 419.325 1175.926 419.5 1171.751 421.424 1176.116 C 421.7 1176.744 423.507 1178.784 424.417 1178.901 C 428.055 1179.478 428.4 1179.667 432.038 1180.244 C 434.998 1179.667 438.296 1180.475 441.024 1179.436 C 446.028 1175.979 447.738 1170.567 448.993 1165.157 L 449.672 1160.09 L 449.332 1158.937 Z M 435.335 1166.768 C 434.769 1167.574 433.518 1167.232 432.609 1167.113 C 431.928 1165.619 431.385 1166.029 431.045 1164.421 C 430.162 1161.688 431.134 1158.817 430.565 1157.201 L 431.751 1153.51 C 432.552 1153.163 434.998 1153.873 435.907 1154.102 L 436.475 1154.91 C 436.705 1156.291 436.816 1157.672 437.499 1158.823 C 437.725 1161.933 436.705 1164.469 435.335 1166.768" style=""/>
      <path d="M 481.173 1163.106 C 482.533 1159.488 483.553 1155.07 482.533 1150.994 C 482.079 1146.919 478.569 1143.184 474.609 1142.164 C 470.303 1141.939 465.891 1141.713 461.476 1141.82 C 459.322 1142.05 456.719 1141.713 454.571 1142.278 C 454.006 1145.445 454.232 1149.07 454.116 1152.241 C 453.662 1156.769 454.116 1161.409 453.662 1165.826 C 453.436 1170.353 453.662 1175.11 453.436 1179.639 C 454.232 1180.655 455.929 1180.544 457.172 1180.318 L 462.719 1180.205 C 463.741 1180.318 464.759 1180.205 465.551 1179.524 C 465.776 1177.828 465.891 1176.013 466.003 1174.2 C 468.382 1175.904 469.627 1178.845 471.664 1180.998 C 472.459 1181.445 473.587 1181.223 474.382 1180.655 C 476.079 1180.544 477.549 1179.751 478.798 1178.733 C 479.476 1178.054 480.153 1177.601 481.062 1177.258 C 481.741 1176.695 482.533 1176.013 482.533 1174.994 C 481.402 1172.278 478.346 1170.468 477.439 1167.749 L 481.173 1163.106 Z M 470.078 1157.338 C 469.967 1159.033 468.154 1158.354 467.136 1158.805 C 466.907 1158.805 466.568 1158.691 466.568 1158.466 L 466.907 1154.164 L 469.627 1154.278 C 470.191 1155.07 470.303 1156.319 470.078 1157.338"/>
      <path d="M 412.847 1142.305 C 413.528 1142.305 414.093 1142.872 414.093 1143.553 C 414.321 1145.14 413.869 1146.725 413.98 1148.311 C 413.869 1150.121 413.756 1152.045 413.302 1153.743 C 412.283 1155.443 409.792 1154.081 408.096 1154.762 C 407.075 1155.216 407.413 1156.573 407.187 1157.48 C 406.734 1158.838 407.187 1160.196 407.302 1161.553 C 406.511 1164.161 407.413 1167.213 406.963 1169.932 C 407.075 1173.328 406.62 1176.497 406.62 1179.668 L 406.055 1180.123 L 400.848 1180.236 L 399.604 1180.236 L 394.846 1180.123 C 394.281 1179.896 394.168 1179.217 394.057 1178.538 C 394.281 1170.952 394.281 1163.253 394.509 1155.67 C 394.622 1155.443 394.846 1154.988 394.509 1154.648 L 391.226 1154.424 C 389.752 1153.857 387.827 1155.216 387.035 1153.628 C 387.035 1152.272 387.601 1151.026 387.151 1149.671 C 387.717 1148.421 387.035 1146.612 387.717 1145.364 C 387.375 1144.347 387.827 1143.441 387.941 1142.534 L 388.394 1142.197 C 393.26 1142.304 398.13 1142.081 402.883 1142.197 L 412.847 1142.304"/>
      <path d="M 512.668 1141.874 C 513.123 1142.895 512.668 1144.025 512.554 1144.935 C 513.009 1146.29 512.442 1147.65 512.554 1149.12 C 512.783 1150.139 512.554 1151.274 512.327 1152.291 L 511.763 1152.744 C 509.158 1152.857 506.668 1152.857 504.174 1153.082 C 503.272 1153.196 501.46 1152.52 501.57 1153.991 C 501.345 1154.781 501.345 1156.027 502.367 1156.027 C 503.159 1156.25 503.723 1155.571 504.627 1155.687 C 506.325 1155.462 508.367 1155.462 510.289 1155.462 C 511.084 1155.571 511.65 1156.479 511.877 1157.157 C 511.877 1158.4 511.763 1159.647 511.084 1160.554 C 510.855 1162.027 511.309 1164.062 510.518 1165.535 C 509.045 1166.102 507.347 1165.426 505.877 1165.535 C 504.174 1165.426 502.592 1165.761 501.004 1165.761 C 500.555 1166.217 500.667 1167.232 500.779 1167.914 L 501.119 1168.139 L 510.743 1168.251 C 512.327 1169.724 510.97 1171.989 511.424 1173.805 C 511.534 1175.045 511.424 1176.634 511.084 1177.877 C 510.97 1178.444 510.518 1179.009 509.95 1178.9 C 508.024 1178.671 505.877 1178.671 503.95 1178.556 C 501.91 1179.576 499.307 1178.444 497.045 1179.124 L 497.045 1179.465 C 496.703 1179.576 496.593 1179.237 496.252 1179.124 L 488.44 1179.124 L 487.873 1178.784 C 487.758 1175.387 487.873 1171.535 488.215 1168.251 C 488.102 1163.951 488.215 1159.647 488.893 1155.571 C 488.44 1151.045 488.669 1146.29 489.119 1141.759 L 489.685 1141.42 L 497.612 1141.196 L 503.045 1141.082 C 505.988 1141.196 509.158 1140.519 512.102 1141.196 L 512.668 1141.874"/>
      <path d="m507.921 993.921c0.22375 1.4725 1.8125 1.13375 2.8275 1.58625 0.90625 0.6775 1.58875 1.69875 2.26625 2.605 1.585 0.7925 3.51125 2.2675 4.19 3.9625 0.34 0.6775 1.1325 0.1113 1.69625 0.4525 1.58625 0.4525 2.60625 2.1488 4.0775 3.055 1.245 0.7938 2.15 2.3788 3.62125 2.7225 1.4725 1.9225 3.735 2.8275 5.2075 4.6371l-0.11125 0.6812c-4.4175 4.415-8.83125 8.9428-13.02 13.4741l-0.6775 1.355c-3.8525 3.8476-7.5875 7.811-10.8712 12.1127-1.7 2.2657-4.1875 3.9639-5.43625 6.5689 4.1925 7.247 9.28375 14.2651 14.0438 21.2828 2.03375 2.6048 4.86375 4.9828 5.3175 8.2665 0.22375 0.6787 1.3575 1.1328 0.90875 1.8091 0 0.5712 0.565 0 0.90375 0.3417 4.755 5.4347 8.265 11.4347 13.02 16.9815v4.3028c-2.605 1.3599-5.09375 3.2812-7.475 4.9805-0.905 0.1122-1.13125 1.1304-1.81 1.4721-1.02125 0.5664-2.26375 1.2475-3.05625 2.2631-1.6975 1.0182-3.28375 2.378-4.9775 3.3985-1.02125 2.1484-3.62875 0.9024-4.7575 2.7139-1.01875 0-1.01875 1.1353-1.47125 1.7001-5.21 2.2633-9.3975 6.9068-14.8338 8.4889-10.9825 3.8501-21.7362 7.8115-32.6038 11.664-0.33875 0.5674-1.0175 0.9043-1.81125 0.792-0.795 0.1123-0.67875-1.1352-1.58375-0.792h0.45375c-2.8325-3.7392-6.00125-7.3584-8.9475-10.8691-7.58375 3.7353-15.3962 7.2461-22.9812 11.0898l-2.37625 0.2295-24.3425-0.1108c-0.45375-1.4712-0.22375-3.5108-0.22375-5.0928-1.6975 1.1304-3.625 2.374-5.3225 3.8437l0.11375 0.1172-0.68125 0.564h-63.5112l-0.2275-0.3394-0.11375-66.7953v-14.8282l1.3575-26.2695 2.155-33.6211c0.11375-0.56875 0.67875-0.90625 1.245-0.90625 2.49-0.11625 5.09625 0.2275 7.3575 0.3375 1.02 0.33875 1.7-0.56625 2.72125-0.3375 2.7125 0.795 5.77125-0.45375 8.26 0.795 2.71875-0.5675 5.66125-0.685 8.605-0.4575 1.47 0.23 2.49125 0.1175 3.96125 0 1.69625 0.33875 3.85-0.3375 4.7575 1.35875 0.22375 2.605-0.45375 4.9825-0.45375 7.5875l-0.5675 7.9238 0.11375 7.4736 0.7925 1.1303 0.115 11.8912c-0.115 4.979-1.02125 9.3906-0.7925 14.2636-0.115 5.5445-0.3425 10.6388-0.4525 15.9595 2.03625 1.9288 0.56375 4.9829 0.9025 7.4746l-0.225 8.0372c0.11375 0.6796 0.90625 0.5673 1.4725 0.6796l6.4525-0.1123c2.72 0.1123 5.6625-0.1147 8.38 0.2247 2.60125 0.3417 5.31875 0.5663 7.925 0.5663 1.69625-1.0205 4.075-0.2246 5.9975-0.2246l0.34-33.06 28.4188-51.1738 0.565-0.3375c2.375 0 5.09375-0.22875 7.245 0.67625 1.6975-0.7925 3.73375-0.10875 5.77375-0.22125 1.81-0.345 3.73625 0.22125 5.54625-0.1175 1.245-0.11 2.49125 0 3.62375 0.4575 0.905-0.91125 2.2625 0 3.5075-0.4575 1.3625 0.23 3.17375-0.2275 4.415 0.4575 2.04-0.91125 4.53-0.4575 6.79375-0.2275 1.2475 1.015 0.455 2.8275 0.67875 4.18875l-0.56625 8.6013c-0.225 1.7025-0.67875 3.7387 0 5.3187 0 4.5318-0.45 9.063-0.225 13.6993l0.225 0.1181c2.3775-2.7198 5.3225-5.5493 7.5875-8.3799 1.92375-2.7162 4.75375-4.9829 6.11375-7.9237 0.34-2.945 3.735-3.965 5.09375-6.3425 3.735-4.7538 8.4925-8.9413 13.0212-13.1326 0.44875-0.45 1.4675-0.45 2.03125-0.11125 1.58875 0.67625 2.60875 2.71875 4.3075 3.50625"/>
      <path d="m431.388 1007.85-0.11375 19.7052c-0.11375 1.582-0.11375 3.5068 0.6825 4.978-0.34375 9.5044-0.115 19.3604 0 29.0943-0.22875 5.9995-0.22875 12.0005-0.56875 18.0015 1.01875 2.2656 0 4.9818 0.225 7.4721 0.34375 9.3955-0.56375 19.022 0.115 28.3017l-0.115 2.9434-6 3.851-21.0562 13.2471v-4.5298c5.0925-3.7353 10.5288-6.9057 15.625-10.6387 1.13125-2.268-0.67875-4.4165 0.11125-6.7953 0.34125-1.5835 0-3.2813 0.11125-4.9795 0.45375-1.25 0-2.3779-0.3375-3.5108 0.3375-1.018-0.11375-1.9262-0.11375-2.832 0.22875-1.1329-0.225-2.1509 0.68125-2.9429l0.5675-3.7392c-0.45375-1.4683-0.115-3.0528 0.22375-4.5264-0.45375-1.4721 0.45375-3.5082-0.6775-4.751 0.22375-2.3804 1.0175-4.8706 0.6775-7.2485-1.24375-1.4746-3.0575-0.4541-4.64125-0.6772-3.85 0.1132-7.8125 0.3378-11.6625 0.2231v-33.0566l21.0575-37.5895 4.98125-8.82755 0.3425-0.22875c0.79 2.9425-0.3425 6.0038-0.115 9.0563"/>
    </g>
    <g stroke="#ee2722" stroke-width=".625" fill="none">
      <g>
        <path d="M 448.868 1159.088 C 449.083 1152.743 447.355 1146.609 442.068 1142.776 C 439.476 1142.012 436.458 1142.669 433.655 1142.45 C 432.465 1142.89 431.063 1142.998 429.768 1142.776 L 423.371 1144.156 C 422.62 1144.701 423.07 1145.746 421.784 1144.859 C 422.106 1148.035 418.876 1149.552 419.521 1152.509 L 421.668 1158.671 C 421.047 1165.547 420.334 1166.498 420.772 1169.484 C 420.876 1172.771 425.212 1176.833 423.962 1174.377 C 421.835 1170.198 425.247 1177.298 426.111 1177.409 C 429.561 1177.957 429.013 1178.796 432.465 1179.344 C 435.272 1178.796 438.399 1179.564 440.987 1178.576 C 445.734 1175.29 447.355 1170.145 448.545 1165 L 449.19 1160.183 L 448.868 1159.088 Z M 435.592 1166.533 C 435.055 1167.298 433.868 1166.974 433.005 1166.86 C 429.922 1164.62 427.869 1165.242 430.233 1164.617 C 430.445 1163.077 428.741 1160.093 428.201 1158.557 L 432.002 1153.912 C 432.76 1153.582 435.272 1154.273 436.134 1154.492 L 436.674 1155.258 C 436.892 1156.572 436.997 1157.885 437.645 1158.98 C 437.86 1161.936 436.892 1164.348 435.592 1166.533" style=""/>
        <path d="M 480.444 1162.615 C 481.741 1159.207 482.714 1155.049 481.741 1151.21 C 481.308 1147.375 477.96 1143.857 474.184 1142.897 C 470.077 1142.684 465.869 1142.471 461.656 1142.573 C 459.604 1142.789 457.121 1142.471 455.071 1143.005 C 454.532 1145.987 454.749 1149.399 454.637 1152.385 C 454.204 1156.648 454.637 1161.017 454.204 1165.176 C 453.988 1169.438 454.204 1173.917 453.988 1178.182 C 454.749 1179.137 456.367 1179.033 457.553 1178.82 L 462.843 1178.714 C 463.817 1178.82 464.788 1178.714 465.544 1178.073 C 465.758 1176.476 465.868 1174.767 465.976 1173.058 C 468.245 1174.664 469.432 1177.432 471.375 1179.46 C 472.133 1179.881 473.209 1179.674 473.967 1179.137 C 475.585 1179.033 476.987 1178.286 478.179 1177.327 C 478.824 1176.689 479.47 1176.262 480.338 1175.94 C 480.985 1175.408 481.741 1174.767 481.741 1173.807 C 480.662 1171.249 477.747 1169.546 476.882 1166.986 L 480.444 1162.615 Z M 469.861 1157.184 C 469.756 1158.78 468.027 1158.14 467.055 1158.565 C 466.838 1158.565 466.515 1158.458 466.515 1158.246 L 466.838 1154.196 L 469.432 1154.304 C 469.969 1155.049 470.077 1156.224 469.861 1157.184" style=""/>
        <path d="M 412.718 1142.534 C 413.399 1142.534 413.964 1143.09 413.964 1143.757 C 414.192 1145.31 413.74 1146.863 413.852 1148.416 C 413.74 1150.189 413.627 1152.073 413.173 1153.737 C 412.154 1155.402 409.664 1154.067 407.967 1154.736 C 406.946 1155.179 407.284 1156.509 407.058 1157.397 C 406.605 1158.728 407.058 1160.057 407.173 1161.386 C 406.382 1163.941 407.284 1166.93 406.834 1169.594 C 406.946 1172.92 406.491 1176.023 406.491 1179.129 L 405.926 1179.575 L 400.719 1179.684 L 399.475 1179.684 L 394.717 1179.575 C 394.152 1179.351 394.04 1178.688 393.928 1178.022 C 394.152 1170.592 394.152 1163.052 394.38 1155.624 C 394.493 1155.402 394.717 1154.956 394.38 1154.624 L 391.097 1154.404 C 389.624 1153.848 387.698 1155.179 386.906 1153.624 C 386.906 1152.295 387.472 1151.075 387.022 1149.748 C 387.588 1148.524 386.906 1146.752 387.588 1145.531 C 387.246 1144.533 387.698 1143.646 387.813 1142.759 L 388.265 1142.428 C 393.131 1142.534 398.002 1142.314 402.754 1142.428 L 412.718 1142.534 Z" style=""/>
        <path d="M 511.994 1142.353 C 512.44 1143.335 511.994 1144.426 511.882 1145.3 C 512.328 1146.605 511.772 1147.913 511.882 1149.328 C 512.106 1150.309 511.882 1151.4 511.659 1152.38 L 511.105 1152.817 C 508.549 1152.924 506.106 1152.924 503.659 1153.141 C 502.773 1153.25 500.995 1152.601 501.104 1154.017 C 500.881 1154.775 500.881 1155.975 501.885 1155.975 C 502.663 1156.189 503.216 1155.537 504.103 1155.647 C 505.77 1155.433 507.773 1155.433 509.659 1155.433 C 510.439 1155.537 510.995 1156.41 511.217 1157.064 C 511.217 1158.26 511.105 1159.46 510.439 1160.331 C 510.214 1161.749 510.66 1163.708 509.883 1165.125 C 508.438 1165.669 506.772 1165.021 505.329 1165.125 C 503.659 1165.021 502.105 1165.342 500.548 1165.342 C 500.107 1165.782 500.216 1166.759 500.326 1167.415 L 500.66 1167.631 L 510.105 1167.739 C 511.659 1169.156 510.327 1171.336 510.772 1173.084 C 510.88 1174.277 510.772 1175.806 510.439 1177.003 C 510.327 1177.549 509.883 1178.093 509.326 1177.988 C 507.436 1177.767 505.329 1177.767 503.438 1177.656 C 501.437 1178.637 498.882 1177.549 496.662 1178.202 L 496.662 1178.53 C 496.326 1178.637 496.218 1178.313 495.884 1178.202 L 488.218 1178.202 L 487.661 1177.875 C 487.548 1174.607 487.661 1170.899 487.997 1167.739 C 487.886 1163.602 487.997 1159.46 488.663 1155.537 C 488.218 1151.18 488.442 1146.605 488.884 1142.244 L 489.439 1141.917 L 497.219 1141.702 L 502.55 1141.593 C 505.439 1141.702 508.549 1141.049 511.438 1141.702 L 511.994 1142.353 Z" style=""/>
        <path d="M 507.921 993.921 C 508.145 995.394 509.734 995.055 510.749 995.507 C 511.655 996.185 512.337 997.206 513.015 998.112 C 514.6 998.905 516.526 1000.38 517.205 1002.075 C 517.545 1002.752 518.337 1002.186 518.901 1002.527 C 520.487 1002.98 521.507 1004.676 522.978 1005.582 C 524.223 1006.376 525.128 1007.961 526.6 1008.305 C 528.072 1010.227 530.335 1011.132 531.807 1012.942 L 531.696 1013.623 C 527.278 1018.038 522.865 1022.566 518.676 1027.097 L 517.998 1028.452 C 514.146 1032.3 510.411 1036.263 507.127 1040.565 C 505.427 1042.831 502.94 1044.529 501.691 1047.134 C 505.884 1054.381 510.975 1061.399 515.735 1068.417 C 517.769 1071.021 520.599 1073.399 521.052 1076.683 C 521.276 1077.362 522.41 1077.816 521.961 1078.492 C 521.961 1079.063 522.526 1078.492 522.865 1078.834 C 527.62 1084.269 531.13 1090.269 535.885 1095.815 L 535.885 1100.118 C 533.28 1101.478 530.791 1103.399 528.41 1105.099 C 527.505 1105.211 527.279 1106.229 526.6 1106.571 C 525.579 1107.137 524.336 1107.818 523.544 1108.834 C 521.846 1109.852 520.26 1111.212 518.566 1112.232 C 517.545 1114.381 514.937 1113.135 513.809 1114.946 C 512.79 1114.946 512.79 1116.082 512.337 1116.646 C 507.127 1118.91 502.94 1123.553 497.504 1125.135 C 486.521 1128.985 475.767 1132.947 464.9 1136.799 C 464.561 1137.367 463.882 1137.704 463.088 1137.591 C 462.293 1137.704 462.41 1136.456 461.505 1136.799 L 461.958 1136.799 C 459.126 1133.06 455.957 1129.441 453.011 1125.93 C 445.427 1129.665 437.615 1133.176 430.03 1137.02 L 427.654 1137.249 L 403.311 1137.139 C 402.857 1135.667 403.087 1133.628 403.087 1132.046 C 401.39 1133.176 399.462 1134.42 397.765 1135.89 L 397.879 1136.007 L 397.197 1136.571 L 333.686 1136.571 L 333.459 1136.231 L 333.345 1069.436 L 333.345 1054.608 L 334.702 1028.338 L 336.857 994.717 C 336.971 994.148 337.536 993.811 338.102 993.811 C 340.592 993.695 343.199 994.038 345.46 994.148 C 346.48 994.487 347.16 993.582 348.181 993.811 C 350.894 994.606 353.952 993.357 356.441 994.606 C 359.16 994.038 362.102 993.921 365.046 994.148 C 366.516 994.378 367.537 994.266 369.007 994.148 C 370.704 994.487 372.857 993.811 373.765 995.507 C 373.989 998.112 373.311 1000.49 373.311 1003.095 L 372.744 1011.019 L 372.857 1018.492 L 373.65 1019.622 L 373.765 1031.514 C 373.65 1036.493 372.744 1040.904 372.972 1045.777 C 372.857 1051.322 372.63 1056.416 372.52 1061.737 C 374.556 1063.666 373.084 1066.72 373.422 1069.211 L 373.197 1077.249 C 373.311 1077.928 374.104 1077.816 374.67 1077.928 L 381.122 1077.816 C 383.842 1077.928 386.785 1077.701 389.502 1078.041 C 392.104 1078.382 394.821 1078.607 397.427 1078.607 C 399.124 1077.586 401.502 1078.382 403.425 1078.382 L 403.765 1045.322 L 432.184 994.148 L 432.749 993.811 C 435.124 993.811 437.842 993.582 439.994 994.487 C 441.691 993.695 443.727 994.378 445.767 994.266 C 447.577 993.921 449.504 994.487 451.314 994.148 C 452.559 994.038 453.805 994.148 454.937 994.606 C 455.842 993.695 457.2 994.606 458.445 994.148 C 459.807 994.378 461.619 993.921 462.86 994.606 C 464.9 993.695 467.39 994.148 469.654 994.378 C 470.901 995.393 470.109 997.206 470.332 998.567 L 469.766 1007.168 C 469.541 1008.871 469.087 1010.907 469.766 1012.487 C 469.766 1017.019 469.316 1021.55 469.541 1026.186 L 469.766 1026.305 C 472.144 1023.585 475.089 1020.755 477.354 1017.925 C 479.277 1015.208 482.107 1012.942 483.467 1010.001 C 483.807 1007.056 487.202 1006.036 488.561 1003.658 C 492.296 998.905 497.054 994.717 501.582 990.526 C 502.031 990.076 503.05 990.076 503.614 990.415 C 505.202 991.091 506.222 993.133 507.921 993.921"/>
        <path d="M 118.016 993.582 C 122.092 993.811 126.28 994.717 130.243 994.038 C 131.15 993.357 132.169 994.487 133.302 994.266 L 133.98 994.266 C 135.113 994.487 136.468 994.378 137.489 994.827 L 138.848 994.148 C 141.792 994.378 145.073 994.148 147.903 995.054 C 155.148 1003.433 162.738 1011.018 170.545 1019.284 C 171.113 1019.284 170.774 1018.492 171.001 1018.038 L 170.774 1013.398 C 169.302 1011.132 170.095 1007.735 170.095 1005.022 L 170.432 996.415 C 170.545 995.507 171.113 994.606 172.244 994.606 C 173.832 994.942 175.527 994.717 177.113 994.942 C 178.02 995.282 178.584 994.487 179.49 994.606 C 181.754 994.606 184.132 994.827 186.51 994.827 C 187.643 995.847 188.323 994.148 189.565 994.266 C 192.283 994.487 194.659 994.606 197.378 994.378 C 198.62 995.507 199.53 993.811 200.774 994.038 C 203.603 994.606 207.568 993.018 209.153 996.302 C 213.455 1004.227 218.209 1011.925 223.191 1019.508 C 223.643 1019.393 223.643 1018.716 223.529 1018.262 C 223.529 1014.754 223.643 1011.018 223.643 1007.393 L 223.417 996.185 C 223.417 995.393 223.869 994.487 224.548 994.378 C 226.701 993.921 228.965 994.378 230.775 995.282 C 231.794 994.378 232.928 993.472 234.4 994.148 C 235.415 994.487 236.433 993.582 237.342 994.378 C 239.153 993.811 240.855 994.606 242.662 994.717 C 243.567 995.961 244.813 994.606 246.17 995.055 C 248.097 995.055 250.021 995.393 251.831 994.606 C 255.006 994.942 258.286 994.378 261.231 995.055 C 262.475 995.737 262.586 997.091 263.041 998.226 L 266.663 1009.658 L 279.57 1047.471 L 282.515 1055.626 L 282.74 1055.737 L 283.08 1053.36 C 283.08 1045.435 282.853 1037.51 282.966 1029.7 L 282.29 1028.114 C 281.72 1022.454 281.72 1016.794 281.72 1011.018 C 282.175 1005.582 281.835 999.811 282.966 994.487 C 284.663 992.906 287.268 994.038 289.19 994.606 L 291.57 993.695 L 296.552 993.921 C 297.798 994.827 299.495 994.487 300.965 994.148 C 303.006 994.942 305.381 993.695 307.193 995.055 L 309.46 994.378 C 311.155 994.942 312.742 994.148 314.551 994.378 C 316.137 994.378 317.837 994.266 319.195 994.827 L 319.873 995.737 L 320.098 1005.925 L 321.006 1033.546 L 322.818 1093.779 C 322.93 1102.154 323.723 1110.534 323.387 1118.909 C 323.387 1119.703 322.818 1120.272 322.592 1120.838 L 322.592 1120.721 C 322.251 1121.064 321.911 1121.514 322.025 1122.081 C 321.006 1123.553 319.873 1125.247 318.291 1126.155 C 317.271 1126.947 316.703 1128.197 315.913 1129.212 L 311.722 1131.363 C 310.365 1132.835 308.441 1132.947 306.74 1133.628 L 302.327 1135.667 L 295.42 1135.889 L 293.041 1136.456 C 290.778 1136.799 288.175 1136.456 285.796 1136.799 L 280.25 1137.02 C 276.626 1136.116 272.893 1137.02 269.153 1137.02 C 266.89 1136.456 263.835 1136.912 262.248 1135.212 L 261.907 1135.212 L 238.022 1116.421 L 236.207 1115.177 L 235.87 1136.456 C 236.097 1137.02 236.887 1136.685 237.455 1136.799 C 236.887 1136.912 235.985 1136.456 235.757 1137.249 C 235.191 1137.366 234.848 1137.138 234.285 1137.249 L 207.455 1137.138 C 206.886 1136.685 206.209 1136.231 205.53 1135.889 L 193.077 1130.797 L 192.961 1137.366 L 163.87 1137.249 C 156.509 1134.644 148.809 1132.947 141.337 1130.686 L 115.071 1123.101 C 113.938 1122.534 112.242 1122.76 111.792 1121.402 C 111.339 1112.117 111.905 1102.834 111.792 1093.551 C 111.563 1092.757 110.431 1092.757 110.318 1091.853 C 110.431 1083.929 110.431 1075.889 110.884 1067.965 C 111.11 1061.968 111.226 1055.626 111.226 1049.284 C 111.226 1048.607 110.205 1048.492 110.093 1047.815 C 109.186 1045.889 109.638 1043.511 109.527 1041.358 C 109.527 1037.169 109.864 1032.982 109.977 1028.795 C 109.751 1018.716 110.205 1008.871 110.431 998.905 C 111.11 998.338 110.318 997.32 110.656 996.638 C 110.656 995.622 110.318 994.378 111.45 993.695 C 112.581 993.133 113.938 993.921 115.187 993.811 C 115.979 993.357 117.11 993.357 118.016 993.582"/>
      </g>
    </g>
    <path d="m215.721 1009.77 7.5845 12.5677c-0.4565 6.4536-0.11475 13.4703-0.11475 19.9253l0.90525 1.1328c-0.45312 9.0567-0.11475 18.3374-0.2265 27.5098-0.67875 5.6616-0.34087 11.5454-0.22662 17.3169l0.7935 1.2476c0.34087 6.9057 0.11187 14.0405 4.52887 19.1332 1.8095 2.0362 3.96238 4.1919 6.00063 5.7739l-0.23125 21.5088h-0.2225l-24.6802-13.2407-3.05463-1.7016-0.34475-0.7935c0.45313-8.9419-0.22362-17.8824 0.67963-26.7139l0.11475-5.7778 0.11187-11.5439c0-2.4941 0.90675-5.7754-0.45312-8.0371-0.22313-5.5508 0.56975-11.0977 0.56975-16.7593 0-6.793 0.33937-13.585 0.33937-20.4907-1.58587-2.605-0.227-5.8887-0.56787-8.9429 0.56787-7.811 0.56787-15.3959 1.01862-23.2084l0.2275-0.45375c2.83063 3.62005 4.64013 7.80995 7.248 11.5474" fill="#ee2722"/>
    <path d="m431.388 1007.85-0.11375 19.7052c-0.11375 1.582-0.11375 3.5068 0.6825 4.978-0.34375 9.5044-0.115 19.3604 0 29.0943-0.22875 5.9995-0.22875 12.0005-0.56875 18.0015 1.01875 2.2656 0 4.9818 0.225 7.4721 0.34375 9.3955-0.56375 19.022 0.115 28.3017l-0.115 2.9434-6 3.851-21.0562 13.2471v-4.5298c5.0925-3.7353 10.5288-6.9057 15.625-10.6387 1.13125-2.268-0.67875-4.4165 0.11125-6.7953 0.34125-1.5835 0-3.2813 0.11125-4.9795 0.45375-1.25 0-2.3779-0.3375-3.5108 0.3375-1.018-0.11375-1.9262-0.11375-2.832 0.22875-1.1329-0.225-2.1509 0.68125-2.9429l0.5675-3.7392c-0.45375-1.4683-0.115-3.0528 0.22375-4.5264-0.45375-1.4721 0.45375-3.5082-0.6775-4.751 0.22375-2.3804 1.0175-4.8706 0.6775-7.2485-1.24375-1.4746-3.0575-0.4541-4.64125-0.6772-3.85 0.1132-7.8125 0.3378-11.6625 0.2231v-33.0566l21.0575-37.5895 4.98125-8.82755 0.3425-0.22875c0.79 2.9425-0.3425 6.0038-0.115 9.0563" stroke="#ee2722" stroke-width=".625" fill="none"/>
    <path d="m280.816 1054.27 1.8125 6.1157-0.22875 12.2256c-1.0175 2.833-4.075 3.396-6.56375 4.0757-1.92625 0.4556-4.4175-0.2304-6.11625 0.7886-2.60375-0.2231-4.9825-1.3535-7.3575-2.2608-1.7-1.7016-0.9075-4.6411-1.02-7.019-0.2275-5.2075 0.2275-10.5273 0-15.8457l-0.11125-8.6084 0.22375-7.1329 0.79375-6.9042c-0.11125-0.6811-0.90625-1.023-1.24375-1.5869 0.45-8.9439 0.78875-17.7765 0.9025-26.834l0.23-0.79 0.44875 0.565 18.23 53.2113z" stroke="#ee2722" stroke-width=".625" fill="none"/>
    <g fill="#fee60e" transform="matrix(1, 0, 0, 1, -0.498951, -0.496494)">
      <path d="M 411.767 1145.428 C 411.427 1146.558 411.54 1147.691 411.656 1148.823 C 411.881 1150.069 411.427 1151.313 411.314 1152.559 L 410.751 1152.901 L 405.768 1153.354 C 404.747 1154.486 405.541 1156.183 405.087 1157.543 C 404.747 1159.127 404.635 1160.711 405.201 1162.182 C 404.523 1165.356 405.087 1169.091 404.747 1172.486 L 404.523 1178.371 C 403.389 1178.715 402.144 1178.483 401.239 1178.147 L 399.654 1178.598 C 398.636 1178.262 397.275 1179.278 396.598 1178.262 C 397.164 1173.845 396.372 1169.428 397.052 1165.012 L 396.938 1157.086 C 397.164 1156.072 397.275 1154.825 396.821 1153.808 C 395.124 1151.992 392.522 1153.237 390.259 1152.785 C 389.239 1150.976 390.03 1148.94 390.259 1147.016 C 390.371 1146.221 390.147 1144.631 391.617 1145.088 C 397.164 1144.748 402.599 1145.317 408.145 1144.862 C 409.393 1145.088 410.863 1144.748 411.767 1145.428"/>
      <g>
        <path d="M 511.069 1144.252 C 511.406 1144.703 510.731 1144.928 510.839 1145.384 C 511.523 1146.514 511.633 1148.212 510.731 1149.234 C 510.731 1150.023 511.406 1150.589 511.294 1151.271 C 509.936 1152.061 508.237 1151.271 506.767 1151.494 C 504.843 1152.289 502.466 1151.494 500.652 1152.289 C 500.202 1154.212 500.086 1156.478 500.312 1158.514 L 500.878 1158.853 C 503.826 1159.759 506.882 1158.968 509.936 1158.853 C 510.507 1158.853 510.389 1159.646 510.163 1159.983 C 509.484 1161.003 509.258 1162.592 509.826 1163.837 C 509.826 1164.177 509.484 1164.401 509.143 1164.401 L 506.316 1164.291 C 504.277 1164.291 502.351 1164.514 500.312 1164.631 C 499.067 1165.646 499.638 1167.233 499.407 1168.593 L 499.522 1170.739 C 501.561 1172.213 504.389 1170.968 506.654 1171.307 C 507.786 1171.196 509.029 1171.421 510.163 1171.646 C 509.936 1172.437 509.707 1173.343 509.484 1174.248 C 510.273 1175.042 510.163 1176.403 509.936 1177.418 L 509.597 1177.649 C 507.107 1177.649 504.277 1177.082 501.899 1177.759 C 498.274 1177.649 494.767 1178.102 491.372 1177.989 L 491.029 1177.649 C 491.482 1172.326 491.143 1167.233 491.482 1161.91 C 491.597 1159.415 492.392 1156.928 492.049 1154.442 C 491.824 1151.27 491.597 1147.645 492.392 1144.703 C 496.464 1144.477 500.768 1143.91 504.843 1144.252 C 506.882 1144.134 509.029 1144.134 511.069 1144.252"/>
      </g>
      <path d="M 474.974 1167.47 C 476.673 1166.448 477.579 1164.521 479.052 1163.052 C 480.068 1160.333 480.633 1157.391 480.863 1154.333 C 480.863 1153.2 480.293 1152.068 480.293 1150.938 C 479.844 1148.22 477.579 1145.73 474.974 1145.051 L 463.201 1144.597 C 461.16 1145.277 458.898 1144.371 456.859 1145.163 C 456.293 1147.767 456.748 1150.484 456.519 1153.199 C 455.729 1157.502 456.975 1161.806 456.069 1165.994 L 455.955 1178.563 C 456.408 1179.467 457.199 1178.333 457.878 1178.45 C 459.576 1179.24 461.385 1178.107 463.085 1178.563 C 463.88 1178.333 463.65 1177.203 463.765 1176.526 C 463.313 1174.372 463.991 1172.335 463.765 1170.07 C 463.88 1169.728 464.105 1169.503 464.446 1169.391 C 466.143 1170.412 467.499 1171.995 468.181 1173.696 C 468.858 1174.26 469.766 1174.938 470.106 1175.847 C 470.675 1177.203 471.918 1178.333 472.825 1179.467 C 473.841 1179.126 474.633 1177.542 475.88 1178.45 C 476.558 1178.333 477.236 1177.88 477.579 1177.203 C 477.579 1175.616 479.615 1176.526 480.068 1175.501 C 478.599 1173.011 475.88 1171.201 474.974 1168.485 L 474.974 1167.47 Z M 472.258 1159.427 C 471.464 1161.691 468.973 1161.577 467.162 1161.916 C 466.143 1161.916 465.126 1162.143 464.559 1161.352 C 464.218 1160.22 464.559 1158.86 464.334 1157.84 C 464.106 1156.261 464.218 1154.218 464.899 1152.863 C 465.691 1151.955 467.047 1152.863 468.068 1152.293 C 469.426 1152.41 470.676 1152.41 471.578 1153.542 C 472.373 1155.353 473.051 1157.391 472.258 1159.427"/>
      <path d="M 447.408 1157.239 C 447.187 1152.528 445.603 1148.046 441.535 1145.355 L 434.647 1145.244 L 433.518 1145.803 C 430.696 1145.468 427.645 1145.579 424.71 1145.579 C 424.257 1145.579 423.804 1145.691 423.804 1146.139 C 423.691 1148.941 424.116 1145.541 424.792 1148.231 C 419.861 1145.912 420.485 1164.764 421.049 1170.37 L 423.485 1176.098 C 423.258 1177.22 425.211 1176.927 425.892 1177.042 C 430.837 1178.56 434.76 1178.534 439.84 1178.419 C 441.198 1177.748 442.439 1176.403 443.344 1175.284 C 445.83 1171.357 447.072 1166.986 447.522 1162.165 C 447.522 1160.598 447.072 1158.917 447.408 1157.239 M 438.035 1168.896 C 436.452 1170.798 433.745 1171.133 431.485 1170.685 C 430.468 1169.9 428.127 1167.261 428.241 1166.141 C 428.351 1163.114 428.7 1160.089 428.133 1157.176 L 430.724 1153.329 C 431.515 1152.319 433.63 1153.203 434.759 1152.976 C 436.115 1152.639 437.471 1153.203 438.261 1154.322 C 439.277 1155.442 439.164 1157.011 439.617 1158.468 C 440.972 1161.942 439.503 1165.863 438.035 1168.896" style="" transform="matrix(0.999807, -0.019657, 0.019657, 0.999807, -22.754715, 8.757543)"/>
      <path d="m506.787 997.091c0.68125 1.02125 1.92625 0.91 2.94625 1.02125 1.24125 1.46875 2.60375 2.6038 4.1875 3.51 1.6975 0.905 0.7925 3.2838 2.605 3.8488 1.13 0.1112 2.375-0.2275 3.16625 0.7925 0.90625 1.13 2.38 1.4712 3.1725 2.7175 1.1325 1.3562 2.60375 1.9262 3.96375 3.0562 0.34 0.45 1.015 0.6788 1.24375 1.2498-3.9625 4.6377-8.49375 8.9405-12.3375 13.4668l-0.68375 1.249c-5.3175 4.979-9.39375 10.979-14.6012 16.2998-0.565 1.0196-2.49125 1.587-1.7 3.169 3.17125 5.3222 6.9075 10.4214 10.4175 15.7397 2.6025 3.96 5.32 8.0362 8.60125 11.7749 0.45375 4.1836 4.7575 6.7886 6.9075 10.188 3.28125 4.0738 6.34375 8.2656 9.285 12.4536v0.5664c-2.15375 1.3589-4.42 2.4903-6.22875 4.3018-0.90375 0-2.04-0.1172-2.37875 0.9033l-0.4525 0.9082c-3.055 2.6026-6.335 4.7525-9.395 7.129-2.0375-0.4527-3.05875 1.4721-4.7575 1.6982-0.67625 0.4565-0.5625 1.246-0.7925 1.8115-3.28375 1.4746-6.10875 4.1919-9.395 6.001h-0.4525c-4.64125-5.2041-7.8125-10.8667-12.1125-16.189-2.2625-1.813-2.03875-5.6606-5.32-5.8877-5.77625-7.6978-10.0788-16.0752-16.3062-23.5449-1.01625 0.4492-0.45 1.813-0.67875 2.6025-0.1125 4.8672-0.56625 9.7339-0.79125 14.3765l0.335 3.1675c-0.56375 3.9649 0.45625 7.8174-0.335 11.665-0.90625 0.2246-0.33875 1.0181 0 1.3599l-0.11125 8.3788-0.455 0.3345c-2.49125-0.3345-5.32125 0.3394-7.5875-0.6787-1.13125-0.1108-1.92125 0.4556-2.7125 1.1304-1.3625 0.1147-2.72 0-3.8525-0.7862-1.245 0.2213-2.375 1.128-3.735 0.6739-0.67875-0.7886-0.79125-2.373-2.26375-2.2607-1.47125 0.2246-2.605 1.3573-3.85125 1.9213-1.92125-0.2231-4.07625 0.3394-6-0.1132-0.67625-1.4698 0.115-2.9385-0.22375-4.523-0.56875-3.06 0-6.2314-0.1175-9.2846l0.34125-14.0415c-0.34125-2.9434 0-6 0.115-9.0543-0.5675-1.1304-0.68125-2.7221-0.33875-3.9657 0.44875-5.7705 0-11.6627 0.44875-17.4332l-0.225-15.3955c0.115-4.1895 0.115-8.3798 0.34-12.5683l-0.7925-1.4722c0.34125-10.8667-0.22375-21.6241 0.7925-32.3766 0.2275-0.90625 1.58375-0.45375 2.38-0.45375 1.80875-0.5675 2.82875 1.92375 4.52625 0.5625l0.56625-0.22375h10.8675c1.13375 0.33875 1.92625 1.8125 3.17 1.01625 1.925-1.58125 4.86875-0.90125 7.02125-0.45125 1.24375-0.34125 2.60125-0.79375 4.07375-0.45l0.33875 0.565-0.11375 9.17-0.225 0.3388c0.11375 1.5875-0.4525 2.945-0.3425 4.4162l0.3425 2.2616c-0.4525 5.8887-0.3425 12.0034-0.67625 18.0029 0.11 0.3418 0.45125 0.563 0.90125 0.563 2.94625-2.3745 4.86875-5.5459 7.5875-8.2607 3.8525-3.6255 6.79125-7.9248 10.1875-11.7755 0.795-0.7913 0.795-1.9263 1.135-2.9438 3.1675-2.9437 5.885-6.225 8.7175-9.395 2.60125-2.26625 4.8675-4.755 7.69625-6.68125 1.36 1.135 3.3975 2.03875 3.9625 3.8475"/>
      <path d="m119.487 996.638h1.24511c2.15234 0.79375 4.75834 1.13375 7.02009 0.90875 0.68012 0.11125 1.13225 1.3575 2.0385 1.2425 1.35987 0.345 1.92525-1.13125 2.94287-1.58375h2.71675c0.68125 0.6775 1.35988 1.69875 2.3795 1.58375 1.47013 0.115 1.47013-1.9225 2.8315-1.8075l4.07275 0.22375 0.2275 0.56625-0.4545 11.5475c-0.11237 1.36-0.33837 3.1675 1.0205 3.9673 0 6.6738-0.45412 13.4668-0.45412 19.9218-0.22613 1.1329 0.90475 1.9239 1.812 2.0353 2.6055 0.227 5.43412 0.227 8.15137 0.4565l4.07513 0.1109 2.94387-0.6788c3.51125-0.1132 7.24613 0.5679 10.5298-0.1132l0.45225-0.6778c0.454-7.2446 0.90625-14.4922 0.454-21.7407 0-0.9038-0.79587-1.3575-0.79587-2.2638l0.229-8.715c-0.229-1.355 0-2.7175 0.22662-3.96375 1.0185-0.4525 2.376-0.33875 3.395 0 0.67875 0.5675 1.58638 0.79375 2.37938 0.45375 1.35837-1.47375 3.62162-0.68 5.32087-0.7925 1.24413 0 1.92275 0.68125 2.83 1.2475 1.47025 0.5675 2.03563-1.02 3.05525-1.585l7.02 0.22375c0.67825 0.56625 1.809 0.90625 2.604 0.34125 1.35838-1.3625 3.623-0.68 5.32225-0.68l0.33788 0.33875c0 11.5526-1.01813 22.7548-1.01813 34.0782l0.68025 1.4707c-0.4565 10.1904-0.4565 20.6054-0.68025 30.9107 0.11438 2.7148-1.019 5.7705 0.3385 8.2617-0.11475 7.2426 0 14.8305-0.3385 21.9619-0.34025 7.8125-0.34025 15.8496-0.455 23.6606-0.11187 0.4541 0 1.4736-0.90575 1.3599-2.15037 0.6811-3.7325-1.1329-5.7725-0.2271-1.24412 0.2271-2.38037-0.3403-3.73725-0.1108h-3.84675l-2.71975-0.6787c-1.811 1.2451-4.4135 1.0166-6.56337 0.7895-0.90775-0.6787-2.26475-1.1328-3.399-0.6787-1.0175 0.9058-2.49075 1.6993-3.73675 1.0195l-0.337-0.7925c-0.229-3.8501-0.229-8.1503 0.11287-12.2265 0.90625-3.17-0.11287-6.5673 0.22413-9.8511 0.45362-1.8115-0.45125-3.1665-0.78913-4.6396l-0.11375-4.1885-0.11425-12.3389c-3.3965-0.6811-7.35937-0.3427-10.8676-0.5689-2.94338 0.9083-6.22863 0.1114-9.39513 0.3409-2.37937-0.2295-4.75725 0.3394-7.13475-0.1147-0.67862 0.4541-0.67862 1.3598-0.56687 2.2666-0.11175 5.7705-0.22313 11.3159 0 17.207l0.45362 1.4697c-0.33937 7.8125 0.2275 15.397-0.33937 22.9849-0.90475 0.7944-2.37738 0.1108-3.622 0.4516-1.47275-0.1137-3.169-0.4516-4.75788 0-1.356-0.4516-3.167-0.5663-4.29887 0.4493l-4.86913-0.1065c-0.7925-0.4565-1.92375-0.9091-2.831-0.4565-0.90237 1.1327-2.71681 0.6811-3.96241 0.563-1.80957-1.9229-3.50977 1.1352-5.43116 0.3442l-0.229-0.6787c-0.45459-9.2861 0.34082-18.6816-0.1123-28.0776-0.11378-0.6822-1.01905-1.1329-1.24415-1.8125-0.45556-9.9634 0.67579-19.6988 0.79005-29.8868 0-4.1919 0.34032-8.3814 0.11181-12.5684-0.11181-0.9032-0.90186-1.5843-1.58252-2.1493-0.22754-5.3213 0.3379-10.5313 0.3379-15.9659 0-9.729-0.1128-19.4679 0.9082-28.9792v-2.37875h-0.4541v-0.3375l2.71924-0.7975c1.01806 0.6825 2.49072 1.2475 3.61962 0.45375"/>
      <path d="m296.438 996.414c0.90375 0.79125 1.92625 1.1325 3.17125 0.905 1.69875-0.905 3.85125-0.3375 5.77125-0.22875 0.90625 0.45625 1.8125 1.36125 3.06 0.91 1.01875-1.69875 3.16875-0.3425 4.6425-1.01875 1.355 0 2.71375-0.115 3.9625 0.10875l0.225 0.5675-0.34125 12.5688c0.34125 6.7918-0.1125 13.697-0.22625 20.3791l-0.11125 3.0533c1.69875 2.2656 0.11125 5.4331 0.67875 8.2651 0.34 0.564 0.34 1.2426 0 1.813 0.11375 10.1904-0.45375 19.812-0.90875 29.6616l0.455 1.4737-1.13375 13.8086c-1.46875 4.9839-1.58625 10.5297-4.3 15.0595-2.1525 3.169-4.755 6.4541-8.04125 8.4912-3.62 2.3755-7.47 4.414-11.8862 4.978l-1.01375 0.3394c-4.08 0.7925-8.2675 1.2451-12.4562 1.4736l-14.49 0.1148c-1.35875 0.7895-3.39875 0.6787-4.985 0.565-4.86625-0.565-9.73375-1.0206-13.9225-2.942-6.455-2.3804-13.358-7.4765-15.966-14.1528l-1.3545-7.2436c-0.4555-3.2886 0.564-6.9054-1.13663-9.6226l-0.22562-3.0615 0.34037-9.1714c0.67813-7.0151 0.11175-14.148 0.34075-21.1631l0.22563-10.5361c-0.11138-0.6773-0.79-1.2452-0.90675-1.9214-0.33938-7.8101 0-15.2833 0.45212-23.0943l-0.11175-12.0008c-0.11475-2.6075-0.22362-5.21255 0.11175-7.8113 0.91013-0.45375 2.041 0.10875 3.06063 0.22375 0.7915 0.6775 1.812 1.47375 2.94287 0.90625l1.24263-1.245c1.362 0 3.0595 0 4.30325 0.22375 1.7-0.3375 3.85-0.22375 5.09375 1.36125 0.45625 0.2275 1.35875 0.3375 1.8125-0.11375 0.90625-1.35625 2.60625-0.22625 3.8475-0.455 0.57 0.3425 1.47125 0.455 2.1525 0.22875l1.2475-0.90625 7.0175 0.22625 0.34125 0.79375c-0.455 6.79625-0.22875 13.3612-0.67875 20.1514l-0.23 12.002 0.79625 1.3574c-0.90875 8.9429-0.79625 18.0005-0.56625 27.0581l-0.1175 13.6963c-0.225 2.4951 1.3625 4.1919 3.39625 5.3247 3.06 1.1304 6.1175 2.9444 9.625 2.0362 1.47125-0.5674 3.3925-0.227 4.98125-0.6822 2.94375-0.7876 6.45375-1.354 7.925-4.6411l0.5675-2.2646c0-6.9019 0.1125-14.0356 0.565-20.9424 0-7.0191-0.225-14.1529 0-21.1729 0.34-1.2451-0.225-2.3755-0.79125-3.395-0.79375-3.2789-0.22875-6.9044-0.56625-10.5273-0.1125-6.5681 0.11125-13.2468 0.905-19.698 2.0375-0.68125 3.6225 1.81 5.66 0.45375l1.245-0.68 4.3025 0.1125"/>
      <path d="m346.028 997.32c1.0175 0.2275 1.46875-0.79125 2.37625-0.79125l6.45375 0.225c1.5825 1.585 3.62-0.33875 5.4325 0.4525 2.15125-1.13 4.98375-0.22375 7.24625 0.11375 1.01875-0.22875 2.2625-0.79125 3.39875-0.4525 0.335 2.49-0.455 4.755-0.2325 7.2425-0.2225 4.985-0.56375 10.0781-0.56375 15.1749-0.11375 1.0156 0.6825 1.583 1.02 2.3755-0.22375 4.7559 0.22875 9.7397-0.22375 14.603-0.91 9.0591-0.5675 18.6792-0.91 27.5112 0.11375 0.791 0.455 1.3584 0.91 1.9263v13.9244c-0.11375 0.454 0.4525 0.791 0.7875 0.791 6.79625-0.2223 13.3625-0.337 19.93 0.1171 2.94125 0.1114 6.225 1.2417 9.05375 0.1114 1.36 0 2.9475 0.1157 4.18875 0.3378l13.2462-0.2221c0.455 0.1074 0.455 0.5639 0.455 1.0146-0.455 1.4732-0.11375 3.1699-1.47375 4.1929-0.11125 1.0156 0.67875 1.809 1.245 2.4916 0.22875 1.8092 0.115 3.5084-0.22625 5.0914 0.56375 1.4711 0.34125 3.1665-0.115 4.6435-0.33875 1.0171-2.1475 1.6993-1.2425 3.0533-0.225 0.9067-0.3375 2.1518 0.56375 2.9428-0.33625 1.1304 0 2.2672 0.5675 3.2838 0 2.9457-0.11375 5.6606-0.7925 8.4936-0.11125 0.6786 1.245 1.4721 0.225 1.9253-6.9025 0.3378-13.81 0-20.3725-0.3433-0.57 0-0.91125 0.6811-1.36375 0.7925-2.7125 0.2295-5.09375-0.5655-7.81-0.5655-6.34 0.1163-12.7925 0.5655-18.9062-0.1147-1.69875-0.1123-3.96375-1.0157-5.20875 0.4556h-4.18875c-5.54625 0-11.0938 0-16.755-0.2246-1.13125 0.2246-2.37625 0.1108-3.17125-0.5679-0.44875-4.6435 0.2275-9.3955 0-14.0356 0.11375-3.5108 0.3425-7.3609 0.4525-11.0963-0.6775-3.2846 0.79375-6.7929-0.56375-9.852-0.2275-2.0361 0.56375-3.8491 0.225-5.7705-0.5625-1.2451 0.33875-2.3814 0-3.7402-0.79125-2.2608 0.22875-4.414 0.22875-6.6748-0.45375-5.6626 0.225-11.4356 0.11-17.0947 0.23-4.8732 0.115-10.0792 0-14.9488l-1.01625-2.1509-0.11375-11.8857c0.4525-7.6971-0.2275-15.6246 0.79125-23.2084 1.92625-1.02 4.3025 0 6.3425 0.4525"/>
      <path d="M 380.83 1152.389 C 374.419 1154.413 370.929 1152.95 369.568 1153.191 C 383.083 1159.742 380.962 1159.736 380.833 1162.442 C 381.613 1171.193 384.472 1176.561 378.796 1180.833 C 377.007 1181.427 360.782 1179.102 359.002 1179.475 C 357.52 1179.785 357.985 1179.022 357.756 1177.317 L 356.059 1169.574 C 358.269 1169.266 358.967 1168.26 360.145 1168.744 C 364.545 1170.552 364.958 1169.446 364.917 1167.084 C 364.868 1164.421 364.182 1162.785 354.668 1160.764 C 354.668 1157.234 358.576 1146.974 359.342 1143.446 C 360.11 1143.095 360.129 1141.636 360.896 1141.397 C 362.169 1141.044 372.747 1142.629 373.898 1141.689 C 380.468 1141.797 385.947 1143.677 382.257 1151.22" style="fill: rgb(238, 39, 34);"/>
      <path d="M 370.002 1149.469 C 364.1 1151.383 362.763 1153.195 364.863 1154.399 C 364.984 1157.065 378.817 1161.858 378.697 1164.416 C 377.907 1167.532 385.458 1181.166 368.979 1178.334 C 367.331 1178.894 362.35 1178.312 360.706 1177.978 C 359.764 1177.759 360.283 1178.363 359.105 1177.922 L 357.783 1172.834 C 359.818 1172.542 356.797 1169.96 357.881 1170.416 C 361.93 1172.125 369.532 1168.016 369.275 1165.796 C 369.069 1164.012 360.185 1161.396 356.836 1159.878 C 352.679 1157.992 355.928 1157.299 355.622 1156.931 C 355.622 1153.595 358.983 1147.463 359.689 1144.126 C 360.395 1143.795 360.161 1145.055 360.866 1144.831 C 362.04 1144.497 364.681 1145.014 365.74 1144.126 C 374.125 1143.662 377.827 1144.951 379.585 1144.95 C 380.475 1144.95 380.969 1148.911 380.468 1150.808" style="" transform="matrix(0.999862, 0.016629, -0.016629, 0.999862, 19.363289, -5.953639)"/>
    </g>
    <g>
      <path d="m362.663 956.003c0 0.27625 0.095 0.5525-0.0925 0.73875-0.27625 0-0.27625-0.18625-0.4625-0.27875 0.0913-0.2775 0.28-0.555 0.555-0.46" fill="#fff"/>
      <path d="m442.903 960.162c-0.0925 0.18375-0.3725 0.09-0.64875 0.09-0.0937-0.18125-0.46-0.55375-0.0937-0.92125 0.4625 0.0888 0.7425 0.3675 0.7425 0.83125" fill="#fff"/>
      <path d="m170.774 1021.66c0 3.624 0 7.2436-0.34175 10.6396l-0.7905 0.3404c-3.17187 0.4565-6.34037-0.3404-9.3975 0-3.05512 1.3622-6.5655-0.1109-9.84912 0.227-0.90475 0-2.15188 0.2295-2.71675-0.6788 0.33925-6.228 0.45112-12.5658 0.7905-18.79-0.33938-1.2436 0-2.8336-1.13088-3.7398l0.56488-11.4326 0.22662-0.5675 0.794 0.5675 21.8505 23.4342" fill="#ee2722"/>
    </g>
    <path d="m170.774 1021.66c0 3.624 0 7.2436-0.34175 10.6396l-0.7905 0.3404c-3.17187 0.4565-6.34037-0.3404-9.3975 0-3.05512 1.3622-6.5655-0.1109-9.84912 0.227-0.90475 0-2.15188 0.2295-2.71675-0.6788 0.33925-6.228 0.45112-12.5658 0.7905-18.79-0.33938-1.2436 0-2.8336-1.13088-3.7398l0.56488-11.4326 0.22662-0.5675 0.794 0.5675 21.8505 23.4342z" stroke="#ee2722" stroke-width=".625" fill="none"/>
    <path d="m215.721 1009.77 7.5845 12.5677c-0.4565 6.4536-0.11475 13.4703-0.11475 19.9253l0.90525 1.1328c-0.45312 9.0567-0.11475 18.3374-0.2265 27.5098-0.67875 5.6616-0.34087 11.5454-0.22662 17.3169l0.7935 1.2476c0.34087 6.9057 0.11187 14.0405 4.52887 19.1332 1.8095 2.0362 3.96238 4.1919 6.00063 5.7739l-0.23125 21.5088h-0.2225l-24.6802-13.2407-3.05463-1.7016-0.34475-0.7935c0.45313-8.9419-0.22362-17.8824 0.67963-26.7139l0.11475-5.7778 0.11187-11.5439c0-2.4941 0.90675-5.7754-0.45312-8.0371-0.22313-5.5508 0.56975-11.0977 0.56975-16.7593 0-6.793 0.33937-13.585 0.33937-20.4907-1.58587-2.605-0.227-5.8887-0.56787-8.9429 0.56787-7.811 0.56787-15.3959 1.01862-23.2084l0.2275-0.45375c2.83063 3.62005 4.64013 7.80995 7.248 11.5474" stroke="#ee2722" stroke-width=".625" fill="none"/>
    <path d="m280.816 1054.27 1.8125 6.1157-0.22875 12.2256c-1.0175 2.833-4.075 3.396-6.56375 4.0757-1.92625 0.4556-4.4175-0.2304-6.11625 0.7886-2.60375-0.2231-4.9825-1.3535-7.3575-2.2608-1.7-1.7016-0.9075-4.6411-1.02-7.019-0.2275-5.2075 0.2275-10.5273 0-15.8457l-0.11125-8.6084 0.22375-7.1329 0.79375-6.9042c-0.11125-0.6811-0.90625-1.023-1.24375-1.5869 0.45-8.9439 0.78875-17.7765 0.9025-26.834l0.23-0.79 0.44875 0.565 18.23 53.2113" fill="#ee2722"/>
    <path d="m337.306 1036.15c0.6825 6.7944 0.115 13.8134 0 20.6079v11.0938c-0.7875 2.3755 0 4.6386-0.10875 7.1337l-0.34 9.6206 0.56375 1.2462c0 5.6606 0 11.5468-0.45 17.207v9.2846c-0.22875 3.169 0.45 7.0215-0.56625 10.0781-0.56625 3.3926-1.245 6.7896-1.8125 10.1856l0.11-81.9653c0.6825-7.6978 0.56875-15.6235 1.58875-23.208 0.56625 2.8286-0.79625 6.2246 1.015 8.7158" fill="#ee2722"/>
    <path d="m337.306 1036.15c0.6825 6.7944 0.115 13.8134 0 20.6079v11.0938c-0.7875 2.3755 0 4.6386-0.10875 7.1337l-0.34 9.6206 0.56375 1.2462c0 5.6606 0 11.5468-0.45 17.207v9.2846c-0.22875 3.169 0.45 7.0215-0.56625 10.0781-0.56625 3.3926-1.245 6.7896-1.8125 10.1856l0.11-81.9653c0.6825-7.6978 0.56875-15.6235 1.58875-23.208 0.56625 2.8286-0.79625 6.2246 1.015 8.7158" stroke="#ee2722" stroke-width=".625" fill="none"/>
    <path d="m319.643 1031.4v1.0157-1.0157" fill="#fee60e"/>
    <path d="m321.458 1086.3c0.22625 10.4126 0.7925 20.7177 1.02 31.3574-1.245 3.0591-2.38 6.3428-5.54875 8.1533l-1.6975 2.4912c-1.92625 0.9058-3.84875 1.6968-5.435 3.0567l-3.625 1.2451-4.185 1.9263-6.4525 0.2246c-3.05875 0.7934-6.57 0.6811-9.96375 0.7934-3.17125 0.4541-6.3425 0.3369-9.51125-0.1123-3.51 0.2271-7.47125 1.0157-10.7562-0.1172l-3.16625-1.3525-17.21-13.8169-0.22625-0.3369c6.33875 1.5854 13.0188 3.0518 20.15 2.4878l1.475-0.6778c10.075 0.2247 20.3762-0.1122 29.4312-2.7172 9.5125-2.2633 18.115-11.3184 20.72-20.603 1.585-4.5274 1.585-9.625 2.3775-14.4923 0.11-3.6206 0.34-7.02 0.68-10.415-0.57-1.9223-0.57-4.188-0.2275-6.3378 0.2275-6.9078 0.90375-13.7013 0.68-20.8335l0.22375 3.1665 1.2475 36.9101" fill="#ee2722"/>
    <path d="m321.458 1086.3c0.22625 10.4126 0.7925 20.7177 1.02 31.3574-1.245 3.0591-2.38 6.3428-5.54875 8.1533l-1.6975 2.4912c-1.92625 0.9058-3.84875 1.6968-5.435 3.0567l-3.625 1.2451-4.185 1.9263-6.4525 0.2246c-3.05875 0.7934-6.57 0.6811-9.96375 0.7934-3.17125 0.4541-6.3425 0.3369-9.51125-0.1123-3.51 0.2271-7.47125 1.0157-10.7562-0.1172l-3.16625-1.3525-17.21-13.8169-0.22625-0.3369c6.33875 1.5854 13.0188 3.0518 20.15 2.4878l1.475-0.6778c10.075 0.2247 20.3762-0.1122 29.4312-2.7172 9.5125-2.2633 18.115-11.3184 20.72-20.603 1.585-4.5274 1.585-9.625 2.3775-14.4923 0.11-3.6206 0.34-7.02 0.68-10.415-0.57-1.9223-0.57-4.188-0.2275-6.3378 0.2275-6.9078 0.90375-13.7013 0.68-20.8335l0.22375 3.1665 1.2475 36.9101z" stroke="#ee2722" stroke-width=".625" fill="none"/>
    <path d="m333.232 1074.08h0.1123v-0.7901h-0.1123v0.7901z" fill="#ee2722"/>
    <path d="m333.232 1074.08h0.1123v-0.7901h-0.1123v0.7901z" stroke="#ee2722" stroke-width=".625" fill="none"/>
    <path d="m169.414 1077.36 0.34087 0.3394c0 4.0737 0.45213 8.1519-0.22612 12.1142-6.90863-3.5107-13.4736-7.9247-20.1532-11.9995l-0.11188-0.2295 0.45363-0.3378 10.979 0.2231c2.26462-0.6773 5.09375-0.333 7.35787-0.333l1.35988 0.2231" fill="#ee2722"/>
    <path d="m169.414 1077.36 0.34087 0.3394c0 4.0737 0.45213 8.1519-0.22612 12.1142-6.90863-3.5107-13.4736-7.9247-20.1532-11.9995l-0.11188-0.2295 0.45363-0.3378 10.979 0.2231c2.26462-0.6773 5.09375-0.333 7.35787-0.333l1.35988 0.2231z" stroke="#ee2722" stroke-width=".625" fill="none"/>
    <path d="m148.695 1078.95c7.0215 4.1885 13.9259 8.3789 20.8345 12.4536 0.5655 1.1328 0.11287 2.4893 1.13087 3.395l-0.11475 10.6445c-0.56637 4.8658-0.67875 10.5284-0.11275 15.5079l1.018 0.6796 20.1524 8.605c0.45363 1.9224 0.11625 4.0757 0.22662 6.1143l-40.7554-14.7193-3.73588-1.4731-0.22662-0.7876c0.11287-7.5864 0.22662-15.3979 0.11287-22.9868 0.11375-1.2451 0.11375-2.4902-0.33937-3.5097l0.11475-13.8063 0.22463-0.6811 1.47012 0.564" fill="#ee2722"/>
    <path d="m148.695 1078.95c7.0215 4.1885 13.9259 8.3789 20.8345 12.4536 0.5655 1.1328 0.11287 2.4893 1.13087 3.395l-0.11475 10.6445c-0.56637 4.8658-0.67875 10.5284-0.11275 15.5079l1.018 0.6796 20.1524 8.605c0.45363 1.9224 0.11625 4.0757 0.22662 6.1143l-40.7554-14.7193-3.73588-1.4731-0.22662-0.7876c0.11287-7.5864 0.22662-15.3979 0.11287-22.9868 0.11375-1.2451 0.11375-2.4902-0.33937-3.5097l0.11475-13.8063 0.22463-0.6811 1.47012 0.564z" stroke="#ee2722" stroke-width=".625" fill="none"/>
    <path d="m477.691 1096.04c1.69875 1.9252 2.2625 4.3056 4.18875 6.1132 2.71875 0.791 3.39625 4.0748 5.21 6.001 3.6225 4.3008 6.45125 8.9419 10.19 13.1338 0.45 0.5625 0.79 1.1337 0.90375 1.8125l-0.68 0.564c-11.4325 4.3007-22.9788 8.2641-34.415 12.5658l-8.94375-10.7529c3.84875-2.0386 7.92375-3.6269 11.8862-5.4361 1.245-0.7933 1.02-2.2656 1.35875-3.5107l0.225-11.7734c0-3.5107-0.225-7.3584 0-10.8691-0.905-2.0361-0.225-4.6411-0.11375-6.9058l0.45375-4.3027 0.23125-0.2261c3.73125 4.3032 5.99625 9.1723 9.505 13.5865" fill="#ee2722"/>
    <path d="m477.691 1096.04c1.69875 1.9252 2.2625 4.3056 4.18875 6.1132 2.71875 0.791 3.39625 4.0748 5.21 6.001 3.6225 4.3008 6.45125 8.9419 10.19 13.1338 0.45 0.5625 0.79 1.1337 0.90375 1.8125l-0.68 0.564c-11.4325 4.3007-22.9788 8.2641-34.415 12.5658l-8.94375-10.7529c3.84875-2.0386 7.92375-3.6269 11.8862-5.4361 1.245-0.7933 1.02-2.2656 1.35875-3.5107l0.225-11.7734c0-3.5107-0.225-7.3584 0-10.8691-0.905-2.0361-0.225-4.6411-0.11375-6.9058l0.45375-4.3027 0.23125-0.2261c3.73125 4.3032 5.99625 9.1723 9.505 13.5865" stroke="#ee2722" stroke-width=".625" fill="none"/>
    <path d="m332.442 1086.98h0.11377v-0.2256h-0.11377v0.2256z" fill="#ee2722"/>
    <path d="m332.442 1086.98h0.11377v-0.2256h-0.11377v0.2256z" stroke="#ee2722" stroke-width=".625" fill="none"/>
    <path d="m444.973 1119.93c1.70125 0.6802 3.625 0.1147 5.3225 0 1.4725 0.4541 3.28375 0.4541 4.9825 0.2261 0.79125-0.7876 1.80875-0.6811 2.94-0.4506 1.2475 0 2.83125-0.337 3.96625 0.2245l-2.3775 1.3614-30.1162 14.4897h-22.755l0.33875-0.3384c8.605-5.3232 16.9838-11.0937 25.8138-15.9677 2.94125 0.6811 5.99875 0 8.94125 0.2305 0.68125 0.1137 1.0175-1.1314 1.6975-0.9083l1.24625 1.1328" fill="#ee2722"/>
    <path d="m444.973 1119.93c1.70125 0.6802 3.625 0.1147 5.3225 0 1.4725 0.4541 3.28375 0.4541 4.9825 0.2261 0.79125-0.7876 1.80875-0.6811 2.94-0.4506 1.2475 0 2.83125-0.337 3.96625 0.2245l-2.3775 1.3614-30.1162 14.4897h-22.755l0.33875-0.3384c8.605-5.3232 16.9838-11.0937 25.8138-15.9677 2.94125 0.6811 5.99875 0 8.94125 0.2305 0.68125 0.1137 1.0175-1.1314 1.6975-0.9083l1.24625 1.1328z" stroke="#ee2722" stroke-width=".625" fill="none"/>
    <path d="m390.632 1120.5c2.71625 0.2231 5.99875 1.0166 8.3775-0.3443l3.73875 0.1181c0.90625-0.5687 2.03625-0.1181 2.9425 0.2262 3.735 0 7.46875-0.1163 10.8688 0.2231-3.7375 3.1714-7.92875 5.5508-11.775 8.4912l-8.945 6.1108h-60.345c0.91-4.8657 1.47625-9.9609 2.8325-14.7153l0.34-0.1098h5.095c7.35625-0.1163 14.6062 0 21.85 0.1098l1.47-0.6802c7.5875 1.1367 15.9638 0.2261 23.55 0.5704" fill="#ee2722"/>
    <path d="m390.632 1120.5c2.71625 0.2231 5.99875 1.0166 8.3775-0.3443l3.73875 0.1181c0.90625-0.5687 2.03625-0.1181 2.9425 0.2262 3.735 0 7.46875-0.1163 10.8688 0.2231-3.7375 3.1714-7.92875 5.5508-11.775 8.4912l-8.945 6.1108h-60.345c0.91-4.8657 1.47625-9.9609 2.8325-14.7153l0.34-0.1098h5.095c7.35625-0.1163 14.6062 0 21.85 0.1098l1.47-0.6802c7.5875 1.1367 15.9638 0.2261 23.55 0.5704" stroke="#ee2722" stroke-width=".625" fill="none"/>
    <path d="m187.191 1120.84c2.1495 0.6763 4.86575 0.4507 7.13238 0.332 1.46875 0.4565 3.1665 0.3443 4.63762 0 1.5865 0.6812 3.3985 0.1187 5.09675 0.5703 3.51025 0.7935 6.56488 2.833 9.84963 4.4141l18.3394 9.852-24.001-0.1172c-10.8678-4.2978-21.3975-8.9428-32.0396-13.5849 0-0.2236-0.45113-0.2236-0.33838-0.4531 1.022-0.1109 1.69925-1.8092 2.71638-0.9043 2.71675 1.1338 5.88712 0.6796 8.60687-0.1089" fill="#ee2722"/>
    <path d="m187.191 1120.84c2.1495 0.6763 4.86575 0.4507 7.13238 0.332 1.46875 0.4565 3.1665 0.3443 4.63762 0 1.5865 0.6812 3.3985 0.1187 5.09675 0.5703 3.51025 0.7935 6.56488 2.833 9.84963 4.4141l18.3394 9.852-24.001-0.1172c-10.8678-4.2978-21.3975-8.9428-32.0396-13.5849 0-0.2236-0.45113-0.2236-0.33838-0.4531 1.022-0.1109 1.69925-1.8092 2.71638-0.9043 2.71675 1.1338 5.88712 0.6796 8.60687-0.1089" stroke="#ee2722" stroke-width=".625" fill="none"/>
    <path d="m164.772 1127.97 23.0971 8.2651-23.3232-0.1147c-15.5108-4.5249-31.1314-8.7134-46.5303-13.5825-0.22754-0.1114-0.7915-0.2295-0.7915-0.6826 1.35986-0.4493 2.49071 0.6826 3.85057 0.5712 1.4717-0.1181 2.94045-0.1181 4.18708-0.6821 2.14937 1.128 4.86562 0.1109 7.245 0.3404 1.13187-0.792 2.49075-0.4542 3.73787-0.2295 1.35838-0.6812 2.71675 0 4.187 0 2.26463-0.4493 4.75588-0.4493 6.90625-0.2247l17.4341 6.3394" fill="#ee2722"/>
    <path d="m164.772 1127.97 23.0971 8.2651-23.3232-0.1147c-15.5108-4.5249-31.1314-8.7134-46.5303-13.5825-0.22754-0.1114-0.7915-0.2295-0.7915-0.6826 1.35986-0.4493 2.49071 0.6826 3.85057 0.5712 1.4717-0.1181 2.94045-0.1181 4.18708-0.6821 2.14937 1.128 4.86562 0.1109 7.245 0.3404 1.13187-0.792 2.49075-0.4542 3.73787-0.2295 1.35838-0.6812 2.71675 0 4.187 0 2.26463-0.4493 4.75588-0.4493 6.90625-0.2247l17.4341 6.3394z" stroke="#ee2722" stroke-width=".625" fill="none"/>
    <path d="m238.36 1136.8h0.45375-0.45375" fill="#ee2722"/>
    <path d="m238.36 1136.8h0.45375-0.45375z" stroke="#ee2722" stroke-width=".625" fill="none"/>
    <path d="M 285.138 1120.174 C 289.027 1120.174 292.832 1120.441 296.539 1120.969 C 300.242 1121.495 303.144 1122.253 305.204 1123.237 C 307.267 1124.221 308.306 1125.248 308.306 1126.313 C 308.306 1127.371 307.286 1128.391 305.249 1129.362 C 303.216 1130.341 300.355 1131.098 296.679 1131.638 C 292.998 1132.177 289.159 1132.448 285.138 1132.448 C 281.121 1132.448 277.278 1132.177 273.594 1131.638 C 269.913 1131.098 267.057 1130.341 265.005 1129.362 C 262.964 1128.391 261.94 1127.371 261.94 1126.313 C 261.94 1125.248 262.964 1124.221 265.054 1123.237 C 267.136 1122.253 270.027 1121.495 273.734 1120.969 C 277.448 1120.441 281.246 1120.174 285.138 1120.174 M 285.138 1121.193 C 281.877 1121.193 278.71 1121.415 275.634 1121.856 C 272.551 1122.302 270.136 1122.928 268.394 1123.752 C 266.664 1124.572 265.791 1125.428 265.791 1126.313 C 265.791 1127.198 266.645 1128.048 268.345 1128.854 C 270.061 1129.667 272.449 1130.297 275.521 1130.75 C 278.589 1131.203 281.798 1131.428 285.138 1131.428 C 288.479 1131.428 291.679 1131.203 294.751 1130.75 C 297.82 1130.297 300.212 1129.667 301.912 1128.854 C 303.605 1128.048 304.455 1127.198 304.455 1126.313 C 304.455 1125.428 303.598 1124.572 301.859 1123.752 C 300.136 1122.928 297.722 1122.302 294.631 1121.856 C 291.528 1121.415 288.373 1121.193 285.138 1121.193 M 274.977 1129.702 L 274.977 1123.107 L 283.604 1123.107 C 286.54 1123.107 288.679 1123.167 289.998 1123.29 C 291.305 1123.412 292.363 1123.627 293.145 1123.932 C 293.924 1124.235 294.317 1124.557 294.317 1124.902 C 294.317 1125.387 293.663 1125.807 292.341 1126.166 C 291.022 1126.527 289.276 1126.725 287.092 1126.769 C 287.976 1126.864 288.686 1126.982 289.223 1127.115 C 290.224 1127.375 291.464 1127.808 292.923 1128.417 L 295.968 1129.702 L 291.06 1129.702 L 288.807 1128.668 C 287.046 1127.856 285.633 1127.349 284.586 1127.141 C 283.853 1126.991 282.776 1126.913 281.356 1126.913 L 278.986 1126.913 L 278.986 1129.702 L 274.977 1129.702 Z M 278.986 1125.998 L 283.982 1125.998 C 286.366 1125.998 287.987 1125.907 288.857 1125.722 C 289.726 1125.536 290.153 1125.292 290.153 1124.987 C 290.153 1124.792 289.941 1124.619 289.522 1124.464 C 289.106 1124.307 288.528 1124.191 287.783 1124.116 C 287.046 1124.038 285.663 1124.002 283.668 1124.002 L 278.986 1124.002 L 278.986 1125.998" fill="#ee2722" style=""/>
  </g>
</svg>